<?xml version="1.0" encoding="UTF-8"?>
<svg id="Layer_1" data-name="Layer 1" xmlns="http://www.w3.org/2000/svg" viewBox="0 0 700 523.42">
  <polygon points="546.28 209.42 546.28 523.42 468.07 442.79 468.07 442.53 354.77 324.44 293.91 261 127.75 87.85 87.85 87.85 87.85 523.42 0 523.42 0 0 165.21 0 165.21 .02 354.75 197.57 354.77 197.57 415.64 261 415.64 261.02 468.07 315.66 468.07 290.93 499.32 258.37 546.28 209.42"/>
  <polygon points="310.84 370.23 156.26 523.42 156.26 523.42 156.26 209.42 234.47 290.93 234.47 322.95 249.97 306.8 310.84 370.23"/>
  <polygon points="700 0 700 523.42 612.15 523.42 612.15 87.85 581.77 87.85 458.72 216.09 397.86 152.64 544.32 0 700 0"/>
  <polygon points="354.77 324.44 354.64 324.58 293.77 261.13 293.91 261 354.77 324.44"/>
</svg>